<?xml version="1.0" encoding="utf-8"?>
<!-- Generator: Adobe Illustrator 19.2.1, SVG Export Plug-In . SVG Version: 6.00 Build 0)  -->
<svg version="1.1" id="layer" xmlns="http://www.w3.org/2000/svg" xmlns:xlink="http://www.w3.org/1999/xlink" x="0px" y="0px"
	 viewBox="0 0 652 652" style="enable-background:new 0 0 652 652;" xml:space="preserve">
<style type="text/css">
	.st0{fill:#0068B7;}
</style>
<g>
	<g>
		<path class="st0" d="M227,351.8c0,2.2-0.3,4.4-0.8,6.9h-42l-1.6-2.4l24.1-46.7h-21.4c-0.3-1.3-0.5-2.5-0.6-3.6
			c-0.1-1.1-0.1-2.2-0.1-3.1c0-1,0-2.1,0.1-3.2c0.1-1.2,0.3-2.4,0.6-3.7h42.5l1.3,2.5l-23.9,46.6h21
			C226.7,347.6,227,349.8,227,351.8"/>
		<path class="st0" d="M261.2,359.6c-4.7,0-8.6-0.6-11.7-1.9c-3.1-1.3-5.6-3.1-7.4-5.5c-1.8-2.4-3.1-5.3-3.8-8.8
			c-0.7-3.4-1.1-7.3-1.1-11.6v-35.7c1.7-0.2,3.1-0.4,4.4-0.5c1.2-0.1,2.4-0.1,3.5-0.1c1,0,2.1,0,3.3,0.1c1.2,0.1,2.6,0.2,4.3,0.5
			V330c0,2.9,0.1,5.4,0.4,7.4c0.2,2,0.7,3.7,1.3,5c0.6,1.3,1.5,2.2,2.6,2.7c1.1,0.6,2.6,0.8,4.4,0.8c1.8,0,3.3-0.3,4.4-0.8
			c1.1-0.6,2-1.5,2.6-2.7c0.6-1.3,1-2.9,1.2-5c0.2-2,0.3-4.5,0.3-7.4v-33.8c1.7-0.2,3.2-0.4,4.4-0.5c1.2-0.1,2.3-0.1,3.3-0.1
			c1,0,2.2,0,3.4,0.1c1.2,0.1,2.7,0.2,4.4,0.5v35.7c0,4.3-0.4,8.2-1.1,11.6c-0.7,3.4-2,6.3-3.8,8.8c-1.8,2.4-4.3,4.3-7.4,5.5
			C269.8,359,265.9,359.6,261.2,359.6"/>
		<path class="st0" d="M311.9,327.4c0,12.3,5.2,18.5,15.5,18.5c1.9,0,3.6-0.2,5.3-0.5c1.7-0.3,3.7-0.9,6.1-1.7
			c1.9,4.2,3.2,8.5,3.8,12.9c-1.7,0.6-3.3,1.2-4.7,1.6c-1.5,0.4-2.9,0.7-4.2,0.9c-1.3,0.2-2.7,0.3-4,0.4c-1.3,0.1-2.7,0.1-4.1,0.1
			c-4.9,0-9.3-0.8-13-2.4c-3.8-1.6-6.9-3.8-9.4-6.7c-2.5-2.8-4.4-6.3-5.7-10.2c-1.3-4-1.9-8.2-1.9-12.9c0-4.6,0.7-9,2-12.9
			c1.3-4,3.3-7.4,5.8-10.3c2.5-2.9,5.7-5.2,9.4-6.8c3.7-1.6,7.9-2.4,12.6-2.4c2.8,0,5.4,0.2,7.9,0.6c2.5,0.4,5.3,1.2,8.4,2.4
			c-0.1,2.4-0.6,4.7-1.3,6.9c-0.8,2.2-1.5,4.2-2.4,5.9c-1.2-0.4-2.2-0.8-3.2-1c-1-0.3-1.9-0.5-2.7-0.7c-0.9-0.2-1.7-0.3-2.6-0.4
			c-0.9-0.1-1.8-0.1-2.8-0.1c-4.7,0-8.4,1.6-10.9,4.8C313.2,316.4,311.9,321.2,311.9,327.4"/>
		<path class="st0" d="M362.7,327.4c0,12.3,5.2,18.5,15.5,18.5c1.9,0,3.6-0.2,5.3-0.5c1.7-0.3,3.7-0.9,6.1-1.7
			c1.9,4.2,3.2,8.5,3.8,12.9c-1.7,0.6-3.3,1.2-4.7,1.6c-1.5,0.4-2.9,0.7-4.2,0.9c-1.3,0.2-2.7,0.3-4,0.4c-1.3,0.1-2.7,0.1-4,0.1
			c-4.9,0-9.3-0.8-13-2.4c-3.8-1.6-6.9-3.8-9.4-6.7c-2.5-2.8-4.4-6.3-5.7-10.2c-1.3-4-1.9-8.2-1.9-12.9c0-4.6,0.7-9,2-12.9
			c1.3-4,3.3-7.4,5.8-10.3c2.5-2.9,5.7-5.2,9.4-6.8c3.7-1.6,7.9-2.4,12.6-2.4c2.8,0,5.4,0.2,7.9,0.6c2.5,0.4,5.3,1.2,8.4,2.4
			c-0.1,2.4-0.6,4.7-1.3,6.9c-0.8,2.2-1.5,4.2-2.4,5.9c-1.2-0.4-2.2-0.8-3.2-1c-1-0.3-1.9-0.5-2.7-0.7c-0.9-0.2-1.7-0.3-2.6-0.4
			c-0.9-0.1-1.8-0.1-2.8-0.1c-4.7,0-8.4,1.6-10.9,4.8C363.9,316.4,362.7,321.2,362.7,327.4"/>
		<path class="st0" d="M441.7,359.2c-2.2,0-4.7-0.3-7.8-0.8v-25.5h-15.4v25.5c-3.1,0.5-5.6,0.8-7.7,0.8c-2.2,0-4.7-0.3-7.8-0.8
			v-62.3c1.6-0.2,3-0.4,4.3-0.5c1.3-0.1,2.4-0.2,3.4-0.2c1,0,2.2,0.1,3.5,0.2c1.3,0.1,2.7,0.3,4.2,0.5v23.1H434v-23.1
			c1.6-0.2,3-0.4,4.2-0.5c1.2-0.1,2.4-0.2,3.4-0.2c1,0,2.2,0.1,3.5,0.2c1.3,0.1,2.7,0.3,4.2,0.5v62.3
			C446.3,358.9,443.8,359.2,441.7,359.2"/>
		<path class="st0" d="M494.9,326c0,2-0.3,4.3-0.8,6.8h-16.8v12.4h21.9c0.5,2.4,0.8,4.7,0.8,6.6c0,2.1-0.3,4.4-0.8,6.9h-37.3V296
			h36.8c0.2,1.3,0.4,2.5,0.5,3.6c0.1,1.1,0.2,2.2,0.2,3.1c0,1.9-0.2,4.2-0.7,6.9h-21.4v9.6h16.8C494.7,321.7,494.9,324,494.9,326"/>
		<path class="st0" d="M521.2,309.6h-14.6c-0.5-2.5-0.8-4.8-0.8-6.9c0-1.9,0.3-4.2,0.8-6.7h44.6c0.2,1.3,0.4,2.5,0.5,3.6
			c0.1,1.1,0.2,2.2,0.2,3.1c0,1.9-0.2,4.2-0.7,6.9h-14.6v48.8c-3.1,0.5-5.6,0.8-7.7,0.8c-2.2,0-4.7-0.3-7.8-0.8V309.6z"/>
		<path class="st0" d="M571.9,309.6h-14.6c-0.5-2.5-0.8-4.8-0.8-6.9c0-1.9,0.3-4.2,0.8-6.7h44.5c0.2,1.3,0.4,2.5,0.5,3.6
			c0.1,1.1,0.2,2.2,0.2,3.1c0,1.9-0.2,4.2-0.7,6.9h-14.6v48.8c-3.1,0.5-5.6,0.8-7.7,0.8c-2.2,0-4.7-0.3-7.8-0.8V309.6z"/>
		<path class="st0" d="M618.9,359.2c-2.2,0-4.7-0.3-7.8-0.8v-62.3c1.6-0.2,3-0.4,4.3-0.5c1.3-0.1,2.4-0.2,3.4-0.2
			c1,0,2.2,0.1,3.5,0.2c1.3,0.1,2.7,0.3,4.2,0.5v62.3C623.5,358.9,620.9,359.2,618.9,359.2"/>
		<polygon class="st0" points="125.4,310.6 111.9,310.6 110.9,311.7 109.1,313.6 125.4,313.6 		"/>
		<polygon class="st0" points="125.4,304.6 117.3,304.6 116.6,305.3 114.6,307.6 125.4,307.6 		"/>
		<polygon class="st0" points="125.4,322.7 101.1,322.7 99.5,324.3 98.2,325.7 125.4,325.7 		"/>
		<polygon class="st0" points="125.4,316.6 106.5,316.6 105.2,318 103.7,319.7 125.4,319.7 		"/>
		<path class="st0" d="M125.4,295.5"/>
		<polygon class="st0" points="59.3,274.4 45.6,274.4 45.6,277.4 62.2,277.4 		"/>
		<polygon class="st0" points="53.9,268.4 45.5,268.4 45.5,271.4 56.8,271.4 		"/>
	</g>
	<g>
		<polygon class="st0" points="45.6,259.5 45.6,265.4 51.4,265.4 		"/>
		<polygon class="st0" points="52.4,310.6 26.6,310.6 26.6,313.6 83.7,313.6 86.2,310.6 52.8,310.6 		"/>
	</g>
	<g>
		<polygon class="st0" points="45.6,337.7 63.3,337.7 65.9,334.7 45.6,334.8 		"/>
	</g>
	<g>
		<polygon class="st0" points="45.6,343.8 58.2,343.8 59.4,342.3 60.8,340.7 45.6,340.7 		"/>
		<polygon class="st0" points="26.6,304.6 26.6,307.6 54.7,307.6 57,304.6 		"/>
		<polygon class="st0" points="125.4,301.6 125.4,295.6 120,301.6 		"/>
		<polygon class="st0" points="26.6,316.6 26.6,319.7 78.6,319.7 81.1,316.6 		"/>
		<polygon class="st0" points="45.6,349.8 53.1,349.8 55.7,346.8 45.6,346.8 		"/>
		<polygon class="st0" points="26.6,325.7 73.5,325.7 74.3,324.7 76,322.7 26.6,322.7 		"/>
	</g>
	<g>
		<polygon class="st0" points="64.7,280.5 45.5,280.5 45.5,283.5 67.7,283.5 		"/>
		<polygon class="st0" points="118.1,386 125.4,386 125.4,382.9 115.2,382.9 		"/>
		<polygon class="st0" points="114.7,349.8 144.5,349.8 144.5,346.8 117.3,346.8 		"/>
		<polygon class="st0" points="109.6,355.8 144.5,355.8 144.5,352.8 112.2,352.8 		"/>
		<polygon class="st0" points="107.7,373.9 125.4,373.9 125.4,370.9 104.9,370.9 		"/>
		<polygon class="st0" points="97.4,361.8 144.5,361.8 144.5,358.8 94.5,358.8 		"/>
		<polygon class="st0" points="95.7,328.7 93.5,331 92.8,331.7 144.5,331.7 144.5,328.7 		"/>
		<polygon class="st0" points="90.2,334.7 88,337 87.3,337.7 144.5,337.7 144.5,334.7 		"/>
	</g>
	<g>
		<polygon class="st0" points="81.9,343.8 119.9,343.8 144.5,343.8 144.5,340.7 84.9,340.7 		"/>
		<polygon class="st0" points="70.6,329.1 70.9,328.7 26.6,328.7 26.6,331.7 68.4,331.7 		"/>
		<polygon class="st0" points="59.3,301.6 61.5,298.5 26.6,298.5 26.6,301.6 		"/>
	</g>
	<g>
		<polygon class="st0" points="125.4,394.3 125.4,389 120.4,389 		"/>
	</g>
	<g>
		<polygon class="st0" points="70.1,286.5 45.6,286.5 45.6,289.5 73.1,289.5 		"/>
		<polygon class="st0" points="75.6,292.5 69.4,292.5 26.6,292.5 26.6,295.5 78.5,295.5 		"/>
	</g>
	<g>
		<polygon class="st0" points="125.3,376.9 110.1,376.9 112.9,379.9 125.3,379.9 		"/>
		<polygon class="st0" points="125.4,364.9 99.6,364.9 102.5,367.9 125.4,367.9 		"/>
		<polygon class="st0" points="45.6,352.8 45.6,358.7 50.6,352.8 		"/>
	</g>
</g>
</svg>
